<svg id="visual" viewBox="0 0 900 20" width="900" height="20" xmlns="http://www.w3.org/2000/svg" xmlns:xlink="http://www.w3.org/1999/xlink" version="1.1"><rect x="0" y="0" width="900" height="20" fill="#050213"></rect><path d="M0 18L15 16.7C30 15.3 60 12.7 90 12C120 11.3 150 12.7 180 13.3C210 14 240 14 270 13.3C300 12.7 330 11.3 360 12.2C390 13 420 16 450 16.2C480 16.3 510 13.7 540 13.7C570 13.7 600 16.3 630 16.5C660 16.7 690 14.3 720 13.7C750 13 780 14 810 14C840 14 870 13 885 12.5L900 12L900 0L885 0C870 0 840 0 810 0C780 0 750 0 720 0C690 0 660 0 630 0C600 0 570 0 540 0C510 0 480 0 450 0C420 0 390 0 360 0C330 0 300 0 270 0C240 0 210 0 180 0C150 0 120 0 90 0C60 0 30 0 15 0L0 0Z" fill="#273245"></path><path d="M0 14L15 14C30 14 60 14 90 13C120 12 150 10 180 9.2C210 8.3 240 8.7 270 9.8C300 11 330 13 360 13.5C390 14 420 13 450 12.8C480 12.7 510 13.3 540 13.3C570 13.3 600 12.7 630 12.8C660 13 690 14 720 14.7C750 15.3 780 15.7 810 15.7C840 15.7 870 15.3 885 15.2L900 15L900 0L885 0C870 0 840 0 810 0C780 0 750 0 720 0C690 0 660 0 630 0C600 0 570 0 540 0C510 0 480 0 450 0C420 0 390 0 360 0C330 0 300 0 270 0C240 0 210 0 180 0C150 0 120 0 90 0C60 0 30 0 15 0L0 0Z" fill="#232e40"></path><path d="M0 10L15 9.3C30 8.7 60 7.3 90 7.5C120 7.7 150 9.3 180 10.2C210 11 240 11 270 11C300 11 330 11 360 10.2C390 9.3 420 7.7 450 7.8C480 8 510 10 540 9.7C570 9.3 600 6.7 630 5.3C660 4 690 4 720 4.2C750 4.3 780 4.7 810 5.2C840 5.7 870 6.3 885 6.7L900 7L900 0L885 0C870 0 840 0 810 0C780 0 750 0 720 0C690 0 660 0 630 0C600 0 570 0 540 0C510 0 480 0 450 0C420 0 390 0 360 0C330 0 300 0 270 0C240 0 210 0 180 0C150 0 120 0 90 0C60 0 30 0 15 0L0 0Z" fill="#202a3b"></path><path d="M0 3L15 3C30 3 60 3 90 3.7C120 4.3 150 5.7 180 5.8C210 6 240 5 270 4.5C300 4 330 4 360 3.7C390 3.3 420 2.7 450 2.8C480 3 510 4 540 4.3C570 4.7 600 4.3 630 5C660 5.7 690 7.3 720 8C750 8.7 780 8.3 810 7.2C840 6 870 4 885 3L900 2L900 0L885 0C870 0 840 0 810 0C780 0 750 0 720 0C690 0 660 0 630 0C600 0 570 0 540 0C510 0 480 0 450 0C420 0 390 0 360 0C330 0 300 0 270 0C240 0 210 0 180 0C150 0 120 0 90 0C60 0 30 0 15 0L0 0Z" fill="#1c2636"></path><path d="M0 2L15 2.5C30 3 60 4 90 4.2C120 4.3 150 3.7 180 3.3C210 3 240 3 270 2.8C300 2.7 330 2.3 360 1.8C390 1.3 420 0.7 450 0.5C480 0.3 510 0.7 540 1.5C570 2.3 600 3.7 630 4.2C660 4.7 690 4.3 720 3.5C750 2.7 780 1.3 810 0.7C840 0 870 0 885 0L900 0L900 0L885 0C870 0 840 0 810 0C780 0 750 0 720 0C690 0 660 0 630 0C600 0 570 0 540 0C510 0 480 0 450 0C420 0 390 0 360 0C330 0 300 0 270 0C240 0 210 0 180 0C150 0 120 0 90 0C60 0 30 0 15 0L0 0Z" fill="#192231"></path></svg>