<svg id="visual" viewBox="0 0 900 50" width="900" height="50" xmlns="http://www.w3.org/2000/svg" xmlns:xlink="http://www.w3.org/1999/xlink" version="1.1"><rect x="0" y="0" width="900" height="50" fill="#040315"></rect><path d="M0 39L30 32.5C60 26 120 13 180 6.5C240 0 300 0 360 0.5C420 1 480 2 540 6.3C600 10.7 660 18.3 720 24.8C780 31.3 840 36.7 870 39.3L900 42L900 0L870 0C840 0 780 0 720 0C660 0 600 0 540 0C480 0 420 0 360 0C300 0 240 0 180 0C120 0 60 0 30 0L0 0Z" fill="#273245"></path><path d="M0 26L30 22.2C60 18.3 120 10.7 180 11C240 11.3 300 19.7 360 19.3C420 19 480 10 540 9.5C600 9 660 17 720 16.8C780 16.7 840 8.3 870 4.2L900 0L900 0L870 0C840 0 780 0 720 0C660 0 600 0 540 0C480 0 420 0 360 0C300 0 240 0 180 0C120 0 60 0 30 0L0 0Z" fill="#202a3b"></path><path d="M0 22L30 22.2C60 22.3 120 22.7 180 19.7C240 16.7 300 10.3 360 7.8C420 5.3 480 6.7 540 6C600 5.3 660 2.7 720 3.2C780 3.7 840 7.3 870 9.2L900 11L900 0L870 0C840 0 780 0 720 0C660 0 600 0 540 0C480 0 420 0 360 0C300 0 240 0 180 0C120 0 60 0 30 0L0 0Z" fill="#192231"></path></svg>