<svg id="visual" viewBox="0 0 900 300" width="900" height="300" xmlns="http://www.w3.org/2000/svg" xmlns:xlink="http://www.w3.org/1999/xlink" version="1.1"><rect x="0" y="0" width="900" height="300" fill="#050213"></rect><path d="M0 63L15 67.8C30 72.7 60 82.3 90 87C120 91.7 150 91.3 180 86.7C210 82 240 73 270 66.8C300 60.7 330 57.3 360 55.2C390 53 420 52 450 51.8C480 51.7 510 52.3 540 59C570 65.7 600 78.3 630 83.8C660 89.3 690 87.7 720 84.3C750 81 780 76 810 69C840 62 870 53 885 48.5L900 44L900 301L885 301C870 301 840 301 810 301C780 301 750 301 720 301C690 301 660 301 630 301C600 301 570 301 540 301C510 301 480 301 450 301C420 301 390 301 360 301C330 301 300 301 270 301C240 301 210 301 180 301C150 301 120 301 90 301C60 301 30 301 15 301L0 301Z" fill="#273245"></path><path d="M0 85L15 89.8C30 94.7 60 104.3 90 102.3C120 100.3 150 86.7 180 81.3C210 76 240 79 270 85.5C300 92 330 102 360 107.7C390 113.3 420 114.7 450 113.7C480 112.7 510 109.3 540 105.5C570 101.7 600 97.3 630 97.2C660 97 690 101 720 101.2C750 101.3 780 97.7 810 95.8C840 94 870 94 885 94L900 94L900 301L885 301C870 301 840 301 810 301C780 301 750 301 720 301C690 301 660 301 630 301C600 301 570 301 540 301C510 301 480 301 450 301C420 301 390 301 360 301C330 301 300 301 270 301C240 301 210 301 180 301C150 301 120 301 90 301C60 301 30 301 15 301L0 301Z" fill="#253042"></path><path d="M0 122L15 123C30 124 60 126 90 126.2C120 126.3 150 124.7 180 124.3C210 124 240 125 270 123C300 121 330 116 360 114.8C390 113.7 420 116.3 450 121C480 125.7 510 132.3 540 129.7C570 127 600 115 630 112.7C660 110.3 690 117.7 720 120.5C750 123.3 780 121.7 810 119.2C840 116.7 870 113.3 885 111.7L900 110L900 301L885 301C870 301 840 301 810 301C780 301 750 301 720 301C690 301 660 301 630 301C600 301 570 301 540 301C510 301 480 301 450 301C420 301 390 301 360 301C330 301 300 301 270 301C240 301 210 301 180 301C150 301 120 301 90 301C60 301 30 301 15 301L0 301Z" fill="#232d3f"></path><path d="M0 134L15 135.8C30 137.7 60 141.3 90 147.2C120 153 150 161 180 159.2C210 157.3 240 145.7 270 144.7C300 143.7 330 153.3 360 154C390 154.7 420 146.3 450 141.8C480 137.3 510 136.7 540 138C570 139.3 600 142.7 630 148.7C660 154.7 690 163.3 720 162.7C750 162 780 152 810 151.8C840 151.7 870 161.3 885 166.2L900 171L900 301L885 301C870 301 840 301 810 301C780 301 750 301 720 301C690 301 660 301 630 301C600 301 570 301 540 301C510 301 480 301 450 301C420 301 390 301 360 301C330 301 300 301 270 301C240 301 210 301 180 301C150 301 120 301 90 301C60 301 30 301 15 301L0 301Z" fill="#212b3c"></path><path d="M0 171L15 175.2C30 179.3 60 187.7 90 188.5C120 189.3 150 182.7 180 182.2C210 181.7 240 187.3 270 186.2C300 185 330 177 360 177.8C390 178.7 420 188.3 450 191.7C480 195 510 192 540 191.3C570 190.7 600 192.3 630 191.3C660 190.3 690 186.7 720 184.7C750 182.7 780 182.3 810 182.8C840 183.3 870 184.7 885 185.3L900 186L900 301L885 301C870 301 840 301 810 301C780 301 750 301 720 301C690 301 660 301 630 301C600 301 570 301 540 301C510 301 480 301 450 301C420 301 390 301 360 301C330 301 300 301 270 301C240 301 210 301 180 301C150 301 120 301 90 301C60 301 30 301 15 301L0 301Z" fill="#1f293a"></path><path d="M0 215L15 214.8C30 214.7 60 214.3 90 210.8C120 207.3 150 200.7 180 198C210 195.3 240 196.7 270 200.2C300 203.7 330 209.3 360 209.8C390 210.3 420 205.7 450 204.3C480 203 510 205 540 207.3C570 209.7 600 212.3 630 210.2C660 208 690 201 720 198.5C750 196 780 198 810 200C840 202 870 204 885 205L900 206L900 301L885 301C870 301 840 301 810 301C780 301 750 301 720 301C690 301 660 301 630 301C600 301 570 301 540 301C510 301 480 301 450 301C420 301 390 301 360 301C330 301 300 301 270 301C240 301 210 301 180 301C150 301 120 301 90 301C60 301 30 301 15 301L0 301Z" fill="#1d2737"></path><path d="M0 227L15 226.8C30 226.7 60 226.3 90 229.2C120 232 150 238 180 239.2C210 240.3 240 236.7 270 234C300 231.3 330 229.7 360 228.7C390 227.7 420 227.3 450 227.2C480 227 510 227 540 228.3C570 229.7 600 232.3 630 233.5C660 234.7 690 234.3 720 233.7C750 233 780 232 810 231.7C840 231.3 870 231.7 885 231.8L900 232L900 301L885 301C870 301 840 301 810 301C780 301 750 301 720 301C690 301 660 301 630 301C600 301 570 301 540 301C510 301 480 301 450 301C420 301 390 301 360 301C330 301 300 301 270 301C240 301 210 301 180 301C150 301 120 301 90 301C60 301 30 301 15 301L0 301Z" fill="#1b2434"></path><path d="M0 270L15 269.3C30 268.7 60 267.3 90 266.8C120 266.3 150 266.7 180 265C210 263.3 240 259.7 270 261.5C300 263.3 330 270.7 360 271.5C390 272.3 420 266.7 450 264C480 261.3 510 261.7 540 262.3C570 263 600 264 630 264.8C660 265.7 690 266.3 720 268C750 269.7 780 272.3 810 274.3C840 276.3 870 277.7 885 278.3L900 279L900 301L885 301C870 301 840 301 810 301C780 301 750 301 720 301C690 301 660 301 630 301C600 301 570 301 540 301C510 301 480 301 450 301C420 301 390 301 360 301C330 301 300 301 270 301C240 301 210 301 180 301C150 301 120 301 90 301C60 301 30 301 15 301L0 301Z" fill="#192231"></path></svg>