<svg id="visual" viewBox="0 0 900 300" width="900" height="300" xmlns="http://www.w3.org/2000/svg" xmlns:xlink="http://www.w3.org/1999/xlink" version="1.1"><rect x="0" y="0" width="900" height="300" fill="#040315"></rect><path d="M0 26L25 25.8C50 25.7 100 25.3 150 32.5C200 39.7 250 54.3 300 62C350 69.7 400 70.3 450 65.3C500 60.3 550 49.7 600 43.5C650 37.3 700 35.7 750 39.7C800 43.7 850 53.3 875 58.2L900 63L900 301L875 301C850 301 800 301 750 301C700 301 650 301 600 301C550 301 500 301 450 301C400 301 350 301 300 301C250 301 200 301 150 301C100 301 50 301 25 301L0 301Z" fill="#273245"></path><path d="M0 118L25 113.5C50 109 100 100 150 94.3C200 88.7 250 86.3 300 89.8C350 93.3 400 102.7 450 105.2C500 107.7 550 103.3 600 102.2C650 101 700 103 750 102.8C800 102.7 850 100.3 875 99.2L900 98L900 301L875 301C850 301 800 301 750 301C700 301 650 301 600 301C550 301 500 301 450 301C400 301 350 301 300 301C250 301 200 301 150 301C100 301 50 301 25 301L0 301Z" fill="#232e40"></path><path d="M0 152L25 154.7C50 157.3 100 162.7 150 159.8C200 157 250 146 300 144C350 142 400 149 450 153.8C500 158.7 550 161.3 600 157.2C650 153 700 142 750 143.2C800 144.3 850 157.7 875 164.3L900 171L900 301L875 301C850 301 800 301 750 301C700 301 650 301 600 301C550 301 500 301 450 301C400 301 350 301 300 301C250 301 200 301 150 301C100 301 50 301 25 301L0 301Z" fill="#202a3b"></path><path d="M0 191L25 188.5C50 186 100 181 150 181C200 181 250 186 300 190.8C350 195.7 400 200.3 450 200.3C500 200.3 550 195.7 600 196.7C650 197.7 700 204.3 750 207.8C800 211.3 850 211.7 875 211.8L900 212L900 301L875 301C850 301 800 301 750 301C700 301 650 301 600 301C550 301 500 301 450 301C400 301 350 301 300 301C250 301 200 301 150 301C100 301 50 301 25 301L0 301Z" fill="#1c2636"></path><path d="M0 239L25 236.7C50 234.3 100 229.7 150 233.3C200 237 250 249 300 252C350 255 400 249 450 243.8C500 238.7 550 234.3 600 235.8C650 237.3 700 244.7 750 244.7C800 244.7 850 237.3 875 233.7L900 230L900 301L875 301C850 301 800 301 750 301C700 301 650 301 600 301C550 301 500 301 450 301C400 301 350 301 300 301C250 301 200 301 150 301C100 301 50 301 25 301L0 301Z" fill="#192231"></path></svg>